<svg width="38" height="38" fill="none" xmlns="http://www.w3.org/2000/svg"><g id="quotation mark 2"><path id="Subtract" fill-rule="evenodd" clip-rule="evenodd" d="M38 19c0 10.493-8.507 19-19 19S0 29.493 0 19 8.507 0 19 0s19 8.507 19 19zm-23.974-6.155A4.018 4.018 0 0010 16.87c0 2.092 1.618 3.829 3.67 3.986-.433.75-1.183 1.58-2.486 2.369a1.163 1.163 0 00-.592.987 1.14 1.14 0 001.579 1.065c2.171-.986 5.842-3.394 5.842-8.407.04-2.21-1.776-4.026-3.987-4.026zm5.96 4.026a4.018 4.018 0 014.027-4.026c2.21 0 4.026 1.815 3.986 4.026 0 5.013-3.67 7.42-5.842 8.407a1.14 1.14 0 01-1.579-1.065c0-.395.237-.79.593-.987 1.302-.79 2.052-1.619 2.486-2.369-2.052-.157-3.67-1.894-3.67-3.986z" fill="#2D1AA7"/></g></svg>